HIERARCHY
ROOT Hips
{
    OFFSET 0.000000 0.000000 0.000000
    CHANNELS 6 Xposition Yposition Zposition Zrotation Xrotation Yrotation
    JOINT Spine
    {
        OFFSET -0.000000 7.236184 0.000000
        CHANNELS 3 Zrotation Xrotation Yrotation
        JOINT Spine1
        {
            OFFSET -0.000000 20.420147 0.000000
            CHANNELS 3 Zrotation Xrotation Yrotation
            JOINT Neck
            {
                OFFSET -0.000000 20.336288 1.848754
                CHANNELS 3 Zrotation Xrotation Yrotation
                JOINT Head
                {
                    OFFSET -0.000000 12.354461 -1.764923
                    CHANNELS 3 Zrotation Xrotation Yrotation
                    End Site
                    {
                        OFFSET -0.000000 22.061537 0.000000
                    }
                }
            }
            JOINT LeftShoulder
            {
                OFFSET 3.573296 18.396038 -0.314103
                CHANNELS 3 Zrotation Xrotation Yrotation
                JOINT LeftArm
                {
                    OFFSET 10.880760 0.000000 0.000000
                    CHANNELS 3 Zrotation Xrotation Yrotation
                    JOINT LeftForeArm
                    {
                        OFFSET 27.185530 0.000000 0.000000
                        CHANNELS 3 Zrotation Xrotation Yrotation
                        JOINT LeftHand
                        {
                            OFFSET 27.825975 0.000000 0.000000
                            CHANNELS 3 Zrotation Xrotation Yrotation
                            End Site
                            {
                                OFFSET 13.236923 0.000000 0.000000
                            }
                        }
                    }
                }
            }
            JOINT RightShoulder
            {
                OFFSET -3.474926 18.396038 -0.314103
                CHANNELS 3 Zrotation Xrotation Yrotation
                JOINT RightArm
                {
                    OFFSET -10.880760 0.000000 0.000000
                    CHANNELS 3 Zrotation Xrotation Yrotation
                    JOINT RightForeArm
                    {
                        OFFSET -27.185530 0.000000 0.000000
                        CHANNELS 3 Zrotation Xrotation Yrotation
                        JOINT RightHand
                        {
                            OFFSET -27.825975 0.000000 0.000000
                            CHANNELS 3 Zrotation Xrotation Yrotation
                            End Site
                            {
                                OFFSET -13.236923 0.000000 0.000000
                            }
                        }
                    }
                }
            }
        }
    }
    JOINT LeftUpLeg
    {
        OFFSET 8.824615 0.000000 0.000000
        CHANNELS 3 Zrotation Xrotation Yrotation
        JOINT LeftLeg
        {
            OFFSET -0.000000 -35.111282 0.000000
            CHANNELS 3 Zrotation Xrotation Yrotation
            JOINT LeftFoot
            {
                OFFSET -0.000000 -42.324711 0.000000
                CHANNELS 3 Zrotation Xrotation Yrotation
                JOINT LeftToeBase
                {
                    OFFSET -0.000000 -5.735999 13.236923
                    CHANNELS 3 Zrotation Xrotation Yrotation
                    End Site
                    {
                        OFFSET -0.000000 0.000000 3.529846
                    }
                }
            }
        }
    }
    JOINT RightUpLeg
    {
        OFFSET -8.824615 0.000000 0.000000
        CHANNELS 3 Zrotation Xrotation Yrotation
        JOINT RightLeg
        {
            OFFSET -0.000000 -35.111282 0.000000
            CHANNELS 3 Zrotation Xrotation Yrotation
            JOINT RightFoot
            {
                OFFSET -0.000000 -42.324711 0.000000
                CHANNELS 3 Zrotation Xrotation Yrotation
                JOINT RightToeBase
                {
                    OFFSET -0.000000 -5.735999 13.236923
                    CHANNELS 3 Zrotation Xrotation Yrotation
                    End Site
                    {
                        OFFSET -0.000000 0.000000 3.529846
                    }
                }
            }
        }
    }
}
MOTION
Frames:    4
Frame Time:    0.008333
18.287840    77.945557    111.105942    -2.086953    -20.086546    -173.954788    -1.558971    -7.133932    0.443850    0.680987    6.921258    0.499946    2.404522    -3.755687    1.719774    2.537439    -13.324497    1.999586    6.663928    -1.603094    -18.605833    -15.451563    3.508954    -73.677177    8.416287    0.890153    -10.085283    14.660760    1.083531    -4.278653    -7.563610    1.637862    16.049248    19.140318    1.180987    70.201454    -12.860173    -4.216780    12.635491    -15.567529    -3.240459    3.302886    23.371393    -37.994774    1.833345    2.654031    28.590940    7.761264    -15.380506    6.131627    -16.998436    -1.878769    -4.966730    2.102077    -25.892614    -37.062737    -14.586328    2.790766    38.865143    4.654517    11.855690    -13.625077    -14.204872    -0.787609    -1.549060    0.853695    
17.635685    77.649841    111.153343    -1.869923    -20.077776    -174.216370    -1.519517    -7.062572    0.495724    0.802389    7.047911    0.540043    2.448790    -4.143679    1.694862    2.664871    -13.240243    1.987965    6.754444    -1.664110    -18.785378    -15.025088    2.877756    -73.833069    8.582344    0.849480    -10.212509    14.628760    1.059398    -4.348640    -7.616995    1.523735    16.134602    19.284315    0.654866    70.450119    -12.922259    -4.352168    12.532524    -15.214625    -3.347940    3.134079    23.222958    -38.408058    2.103862    2.949774    29.591690    7.622300    -15.925336    4.933765    -16.910582    -1.847487    -4.991227    2.067178    -26.175114    -37.353817    -14.642152    2.717638    39.222622    4.783132    12.313241    -13.634086    -14.070528    -0.801682    -1.575827    0.868981    
16.973814    77.368561    111.194542    -1.644481    -20.067240    -174.459183    -1.487726    -7.006540    0.545654    0.941516    7.176107    0.577756    2.490538    -4.506284    1.654459    2.796247    -13.146307    1.961515    6.837360    -1.690323    -18.960075    -14.621988    2.338366    -73.919731    8.792437    0.805154    -10.404031    14.631687    1.036101    -4.446560    -7.644363    1.461956    16.195297    19.391848    0.208468    70.591187    -13.058021    -4.496367    12.549563    -14.906576    -3.450585    3.010495    23.086149    -38.826263    2.418997    3.254973    30.608084    7.472670    -16.430815    3.707446    -16.879320    -1.804370    -4.945795    2.018755    -26.440580    -37.588646    -14.648714    2.666801    39.494953    4.867754    12.775798    -13.617528    -13.947659    -0.812836    -1.601508    0.881104    
16.313034    77.108994    111.228683    -1.415838    -20.055620    -174.678726    -1.466830    -6.966824    0.592557    1.095144    7.303913    0.611987    2.527106    -4.835635    1.598095    2.935189    -13.046928    1.921503    6.914311    -1.678470    -19.125193    -14.263074    1.892955    -73.940811    9.043908    0.760624    -10.659010    14.664618    1.017801    -4.569796    -7.645240    1.455215    16.231806    19.469574    -0.152927    70.620461    -13.270363    -4.651420    12.688512    -14.658185    -3.549161    2.931945    22.963982    -39.235722    2.775806    3.561427    31.601532    7.302230    -16.884064    2.493681    -16.898882    -1.751676    -4.837347    1.959384    -26.685482    -37.761120    -14.609193    2.638199    39.674110    4.908138    13.234061    -13.571649    -13.837606    -0.820687    -1.624997    0.889644    
